PathFileType	4	(X/Y/Z)	RBDS010\RBDS010runT35.trc
DataRate	CameraRate	NumFrames	NumMarkers	Units	OrigDataRate	OrigDataStartFrame	OrigNumFrames
150.000000	150.000000	4	32	mm	150.000000	562	4500
Frame#	Time	L.ASIS			L.Heel.Bottom			L.Heel.Lateral			L.Heel.Top			L.Iliac.Crest			L.MT5			L.PSIS			L.Shank.Bottom.Lateral			L.Shank.Bottom.Medial			L.Shank.Top.Lateral			L.Shank.Top.Medial			L.Thigh.Bottom.Lateral			L.Thigh.Bottom.Medial			L.Thigh.Top.Lateral			L.Thigh.Top.Medial			R.ASIS			R.ASY			R.Heel.Bottom			R.Heel.Lateral			R.Heel.Top			R.Iliac.Crest			R.MT1			R.MT5			R.PSIS			R.Shank.Bottom.Lateral			R.Shank.Bottom.Medial			R.Shank.Top.Lateral			R.Shank.Top.Medial			R.Thigh.Bottom.Lateral			R.Thigh.Bottom.Medial			R.Thigh.Top.Lateral			R.Thigh.Top.Medial			
		X1	Y1	Z1	X2	Y2	Z2	X3	Y3	Z3	X4	Y4	Z4	X5	Y5	Z5	X6	Y6	Z6	X7	Y7	Z7	X8	Y8	Z8	X9	Y9	Z9	X10	Y10	Z10	X11	Y11	Z11	X12	Y12	Z12	X13	Y13	Z13	X14	Y14	Z14	X15	Y15	Z15	X16	Y16	Z16	X17	Y17	Z17	X18	Y18	Z18	X19	Y19	Z19	X20	Y20	Z20	X21	Y21	Z21	X22	Y22	Z22	X23	Y23	Z23	X24	Y24	Z24	X25	Y25	Z25	X26	Y26	Z26	X27	Y27	Z27	X28	Y28	Z28	X29	Y29	Z29	X30	Y30	Z30	X31	Y31	Z31	X32	Y32	Z32	

563	3.746666666666667	2375.646363462568	954.0773108902706	877.3169646844135	1673.351740341875	368.3553151297284	940.3775277497043	1692.245273714007	336.4173199771972	898.7092734138605	1724.940509407591	368.8089723975006	937.9932030714028	2343.330251853487	1053.505645433709	851.0766554508888	1717.597068572984	174.6619480483465	900.6611475410361	2212.89715045597	1025.295884944638	944.391789400252	1803.583436385754	353.4721486029704	887.3191745185377	1785.468515660085	383.3157495140133	928.5182869351737	1863.079909355364	405.6496647402707	874.2255797810868	1844.684573187879	436.9672038757154	914.0528424537927	2131.037007438522	602.1283696816429	855.2670417129971	2077.341851086755	624.7395635889773	899.7065082612145	2155.973272278406	708.2957201231218	837.1655351939791	2106.97425125575	729.3438870867433	880.7458912563088	2370.749226226586	965.1177923058718	1100.628674092511	2635.152129714843	129.698388648164	1037.934298427896	2463.213116485399	58.45317719767451	1004.693568892892	2486.554378166983	69.19923741937018	1053.794208230898	2467.250937735331	105.8326652296411	1016.84649033945	2301.018010009708	1054.294186785215	1143.213722076641	2671.925700438289	98.20088138818174	976.8693593800872	2649.150499883747	63.84284747370179	1082.561490058478	2208.753343176591	1025.94949048252	1043.946226172597	2501.8778756096	204.8788096897607	1080.993735549185	2461.856157390548	200.4315545455351	1048.847220751057	2474.462532022548	283.3031454919052	1100.021139869466	2434.467393674372	275.0407672592381	1065.172814499324	2400.99192806088	601.5107523610326	1143.035238090357	2349.635046987938	577.9673400110229	1096.182703551114	2342.946840237173	693.564047420718	1156.83995308819	2292.759990533646	671.3619931973267	1115.332837182791	
564	3.753333333333333	2376.692526205894	952.156935431803	877.1777085707482	1673.201668800607	381.4422808259548	938.2916322487946	1690.631713059715	348.5708881944965	896.901448252146	1724.650356957913	379.8688210346205	935.9634000106686	2342.898920212897	1051.714903174047	850.5492199899695	1709.422239456092	186.4657374987385	899.8451758562438	2213.362050034464	1022.189008653187	943.0816063810437	1802.55520332776	361.1473621861531	886.0532121016608	1785.773502215728	391.7029516412609	927.2817261121776	1864.685220020457	410.5185104897704	873.4437358900035	1847.619641803548	442.5376890934152	913.2816419559643	2137.285629926886	595.7510071941113	854.8746785441905	2083.546326933869	617.4161911201056	899.6765225961569	2160.315171878633	702.3375379594434	836.8390512950966	2111.196072706076	722.5478637542113	880.6567960838112	2370.228967155061	963.8490766887739	1100.615182284561	2635.231261515177	126.2387653190177	1036.308652397163	2463.668588415282	55.95636266728194	999.486589894851	2486.433242975899	65.57102702178553	1049.119856139051	2467.679134042706	103.0509389074308	1012.774382865905	2300.026934217647	1052.605242107854	1142.733333973095	2672.652694221848	95.87991619310084	974.75763124602	2648.669675983031	59.70717395811402	1079.772843104097	2208.445633205441	1023.352362902126	1042.644900880765	2500.484376679839	200.8374606127763	1078.548837821475	2460.926175221	196.1156200948889	1045.763338951547	2471.826833050755	278.8571716900509	1097.822996104337	2432.394243948031	270.3551407873317	1062.367474703428	2396.299305558141	597.6074384060681	1142.785871188468	2345.065877103116	575.0783229081489	1095.155148528475	2339.400019882449	690.4935237396925	1156.396971312128	2289.296090220801	669.2534091635614	1114.382913888788	
565	3.76	2377.717242073298	949.6208890386602	877.1755078308853	1675.023759861984	394.2115469388938	936.4031451441622	1690.703186357609	360.4582923077474	895.2125278042412	1726.201324409127	390.4788894139222	933.9850340217462	2342.801886690552	1049.185787848767	849.9650336402296	1702.438096453417	198.2379007010707	898.9343341091869	2213.808971680753	1018.337233577898	941.5615177495523	1802.852470898589	368.4407494262247	884.7171807961265	1787.492039671658	399.5327793313548	926.0605935744013	1867.422739801463	414.9221558375322	872.6104242267626	1851.794911854962	447.4728162750437	912.5635313086269	2143.616458290187	588.8083206337022	854.3556753515439	2090.073394044231	609.332442295007	899.8364578768164	2164.557112388492	695.8567384267815	836.622224236374	2115.603087127088	715.0339807357362	880.9970204155153	2369.498673433397	962.244603608696	1100.751881222071	2631.782467848718	121.9674774041732	1034.235613535979	2460.13983192614	53.61347670604185	994.4568581766423	2482.434909127155	62.20246926644322	1044.527010539751	2464.482945675116	100.4456474686975	1008.586012248364	2298.639446654201	1050.551367659834	1142.158692754965	2669.615123559912	92.19634302811129	972.3616385224291	2644.312692841198	55.17436924087476	1077.042372799294	2207.950712288418	1020.109236933478	1041.146992037904	2496.722760504479	196.5513654520586	1075.951576448591	2457.501803094348	192.0339530366817	1042.657741516692	2467.774172760985	274.3842428772202	1095.564951245917	2428.753862987038	266.1367472325943	1059.586537912086	2392.592131597248	593.9250732926088	1142.343462150414	2341.404420263813	572.0454832005128	1094.2579712619	2336.491629767762	687.3978469804138	1155.789047796989	2286.455214329691	666.7922439252752	1113.486706410864	
566	3.766666666666667	2378.661427599116	946.4794649196981	877.3245869204986	1678.873947103776	406.5233920229052	934.7375122198774	1692.557503914305	371.9717855081539	893.6484582835568	1729.653831531475	400.5093199411593	932.1034743643752	2343.049145423814	1045.908847727225	849.3573426584932	1696.807068059664	209.8514999302949	897.8726539146764	2214.177942814841	1013.786541673408	939.905226129327	1804.571886688248	375.2482316874048	883.3087921745624	1790.680483623432	406.6991506825447	924.8397512746756	1871.350944678086	418.7821094942736	871.702193693544	1857.236516873658	451.6925395510253	911.8604006965896	2149.982830456353	581.4145499436612	853.6827019395564	2096.843290041681	600.6308526398481	900.1035409978548	2168.68928864739	688.9447815544941	836.4641184456442	2120.142461419499	706.9256083344134	881.6647795302032	2368.560488648713	960.2491297341644	1101.058832012938	2624.851984015421	117.0318548620929	1031.615658115514	2452.72167392886	51.23907040740914	989.7619223600307	2474.671827451434	59.04613444277646	1040.137682276747	2457.695549446005	97.86723482144235	1004.338678951112	2296.89169813618	1048.0561440411	1141.51445222548	2662.880776986558	87.25857631875002	969.6416210464655	2636.237285781557	50.49857043423393	1074.399602196137	2207.24712259806	1016.215950521314	1039.518504584645	2490.670694047554	191.9903158955148	1073.176498917854	2451.60971121533	188.1464290220844	1039.580065412827	2462.395836795851	269.8512262660012	1093.258149631193	2423.58715639126	262.3439321799012	1056.904649685748	2389.870525223	590.3951468875791	1141.706137497741	2338.65253401152	568.824373949188	1093.462782276057	2334.218393185366	684.206640552346	1155.041879599568	2284.227365094465	663.9279888947131	1112.641557673341	
